<svg xmlns="http://www.w3.org/2000/svg" viewBox="0 0 32 32">
  <defs>
    <linearGradient id="g" x1="0%" y1="0%" x2="100%" y2="100%">
      <stop offset="0%" stop-color="#FF5F6D" />
      <stop offset="100%" stop-color="#FFC371" />
    </linearGradient>
  </defs>
  <rect width="32" height="32" rx="8" fill="url(#g)" />
  <path d="M12 11h8a1 1 0 0 1 1 1v1h-10v-1a1 1 0 0 1 1-1zm-4 3h16a1 1 0 0 1 1 1v8a3 3 0 0 1-3 3H10a3 3 0 0 1-3-3v-8a1 1 0 0 1 1-1zm8 2a2 2 0 1 0 0 4 2 2 0 0 0 0-4z" fill="#ffffff" />
</svg>
